<?xml version="1.0" encoding="utf-8"?>
<?xml-stylesheet type="text/xsl" href="rss1.xsl"?>
<rss version="2.0" xmlns:atom="http://www.w3.org/2005/Atom" xmlns:content="http://purl.org/rss/1.0/modules/content/" xmlns:dc="http://purl.org/dc/elements/1.1/" xmlns:media="http://search.yahoo.com/mrss/">
<channel>
 <title>Getty</title>
 <link>http://www.gettyimg.com/</link>
 <atom:link href="http://www.gettyimg.com/" rel="self" type="application/rss+xml" />

 
                <item>
                <title><![CDATA[【Albums (lossless)】FLAC - Hilary Duff - Breathe In. Breathe Out. (Japanese Edition) | CD Rip | .FLAC 16bits ⋆ 44.1kHz]]></title>
                <link><![CDATA[https://sharemania.us/threads/hilary-duff-breathe-in-breathe-out-japanese-edition-cd-rip-flac-16bits-%E2%8B%86-44-1khz.251525/]]></link>
                <description><![CDATA[<article>
<blockquote class="messageText SelectQuoteContainer ugc baseHtml">
<div style="text-align: center"><img src="https://i.imgur.com/61h2Wpr.jpeg" class="bbCodeImage LbImage" alt="[​IMG]" data-url="https://i.imgur.com/61h2Wpr.jpeg" style=""><br>
<br>
<span style="font-family: 'Book Antiqua'"><span style="font-size: 10px"><span style="color: #000000">
<div class="ToggleTriggerAnchor bbCodeSpoilerContainer">
<button type="button" class="button bbCodeSpoilerButton ToggleTrigger Tooltip JsOnly" data-target="> .SpoilerTarget"><span>Spoiler: <span class="SpoilerTitle">.log</span></span></button>
<div class="SpoilerTarget bbCodeSpoilerText">Exact Audio Copy V1.1 from 23. June 2015 <br>
<br>
EAC extraction logfile from 22. August 2015, 11:22 <br>
<br>
Hilary Duff / Breathe In. Breathe Out. (Japanese Edition) <br>
<br>
Used drive : ATAPI iHAS124 E Adapter: 1 ID: 0 <br>
<br>
Read mode : Secure <br>
Utilize accurate stream : Yes <br>
Defeat audio cache : Yes <br>
Make use of C2 pointers : No <br>
<br>
Read offset correction : 6 <br>
Overread into Lead-In and Lead-Out : No <br>
Fill up missing offset samples with silence : Yes <br>
Delete leading and trailing silent blocks : No <br>
Null samples used in CRC calculations : Yes <br>
Used interface : Native Win32 interface for Win NT &amp; 2000 <br>
<br>
Used output format : User Defined Encoder <br>
Selected bitrate : 896 kBit/s <br>
Quality : High <br>
Add ID3 tag : No <br>
Command line compressor : C:\Program Files (x86)\Exact Audio Copy\Flac\flac.exe <br>
Additional command line options : -V -8 -T "Genre=%genre%" -T "Artist=%artist%" -T "Title=%title%" -T "Album=%albumtitle%" -T "Totaldiscs=%totalcds%" -T "Discnumber=%cdnumber%" -T "Date=%year%" -T "Tracknumber=%tracknr%" -T "Composer=%composer%" -T "Comment=%comment%" %source% <br>
<br>
<br>
TOC of the extracted CD <br>
<br>
Track | Start | Length | Start sector | End sector <br>
--------------------------------------------------------- <br>
1 | 0:00.00 | 3:05.69 | 0 | 13943 <br>
2 | 3:05.69 | 3:27.36 | 13944 | 29504 <br>
3 | 6:33.30 | 3:45.24 | 29505 | 46403 <br>
4 | 10:18.54 | 3:49.30 | 46404 | 63608 <br>
5 | 14:08.09 | 3:33.14 | 63609 | 79597 <br>
6 | 17:41.23 | 3:36.11 | 79598 | 95808 <br>
7 | 21:17.34 | 3:16.48 | 95809 | 110556 <br>
8 | 24:34.07 | 3:33.61 | 110557 | 126592 <br>
9 | 28:07.68 | 3:33.19 | 126593 | 142586 <br>
10 | 31:41.12 | 3:28.23 | 142587 | 158209 <br>
11 | 35:09.35 | 3:21.63 | 158210 | 173347 <br>
12 | 38:31.23 | 3:46.36 | 173348 | 190333 <br>
13 | 42:17.59 | 3:35.57 | 190334 | 206515 <br>
14 | 45:53.41 | 3:19.37 | 206516 | 221477 <br>
15 | 49:13.03 | 2:42.60 | 221478 | 233687 <br>
16 | 51:55.63 | 2:42.04 | 233688 | 245841 <br>
17 | 54:37.67 | 3:04.15 | 245842 | 259656 <br>
<br>
<br>
Range status and errors <br>
<br>
Selected range <br>
<br>
Filename D:\rip-flacmusic.org\Hilary Duff - Breathe In. Breathe Out..wav <br>
<br>
Peak level 99.9 % <br>
Extraction speed 8.4 X <br>
Range quality 99.9 % <br>
Test CRC 8D69A94C <br>
Copy CRC 8D69A94C <br>
Copy OK <br>
<br>
No errors occurred <br>
<br>
<br>
AccurateRip summary <br>
<br>
Track 1 not present in database <br>
Track 2 not present in database <br>
Track 3 not present in database <br>
Track 4 not present in database <br>
Track 5 not present in database <br>
Track 6 not present in database <br>
Track 7 not present in database <br>
Track 8 not present in database <br>
Track 9 not present in database <br>
Track 10 not present in database <br>
Track 11 not present in database <br>
Track 12 not present in database <br>
Track 13 not present in database <br>
Track 14 not present in database <br>
Track 15 not present in database <br>
Track 16 not present in database <br>
Track 17 not present in database <br>
<br>
None of the tracks are present in the AccurateRip database <br>
<br>
End of status report <br>
<br>
---- CUETools DB Plugin V2.1.6 <br>
<br>
[CTDB TOCID: iTAYLet9gQdJI6fyygsjyZSJ0_0-] found <br>
Submit result: already submitted <br>
Track | CTDB Status <br>
1 | (2/2) Accurately ripped <br>
2 | (2/2) Accurately ripped <br>
3 | (2/2) Accurately ripped <br>
4 | (2/2) Accurately ripped <br>
5 | (2/2) Accurately ripped <br>
6 | (2/2) Accurately ripped <br>
7 | (2/2) Accurately ripped <br>
8 | (2/2) Accurately ripped <br>
9 | (2/2) Accurately ripped <br>
10 | (2/2) Accurately ripped <br>
11 | (2/2) Accurately ripped <br>
12 | (2/2) Accurately ripped <br>
13 | (2/2) Accurately ripped <br>
14 | (2/2) Accurately ripped <br>
15 | (2/2) Accurately ripped <br>
16 | (2/2) Accurately ripped <br>
17 | (2/2) Accurately ripped <br>
<br>
<br>
==== Log checksum EF6784DF1A73B1AA2317849E6C76A00520F7511F08B99E4BAD7A2907492FB27D ====</div>
</div></span></span></span><br>
<br>
<span style="font-family: 'Book Antiqua'"><span style="font-size: 12px"><span style="color: #000000">contains</span><b><i><span style="color: #ff4d4d"> Scans</span></i></b><br>
<span style="color: #000000"><br>
<div class="bbCodeBlock bbCodeVfcHH HiddenContent">
<div class="attribution type">Hidden Content:</div>
<blockquote>You must reply before you can see the hidden data contained here.</blockquote>
</div></span></span></span>​</div>
<div class="messageTextEndMarker">&nbsp;</div>
</blockquote>
</article>]]></description>
                <author><![CDATA[Nuric]]></author>
                </item>

                </channel></rss>